<svg width="16" height="16" viewBox="0 0 16 16" fill="none" xmlns="http://www.w3.org/2000/svg">
  <path d="M8.159 6.856c0-.703-.064-1.407-.192-2.095h-6.967v3.968h3.967c-.171.896-.69 1.71-1.467 2.229v1.848h2.372c1.388-1.277 2.287-3.162 2.287-5.95z" fill="#4285f4"/>
  <path d="M1 8.928c0-.297.026-.586.074-.866l-2.074-.161v2.099c0 1.105.895 2 2 2s2-.895 2-2z" fill="#34a853"/>
  <path d="M1 6.072c.552 0 1.057.224 1.414.586l1.058-1.058c-.631-.631-1.5-1.022-2.472-1.022-1.105 0-2 .895-2 2s.895 2 2 2z" fill="#fbbc04"/>
  <path d="M8.159 6.856c0-.703-.064-1.407-.192-2.095h-6.967v3.968h3.967c-.171.896-.69 1.71-1.467 2.229v1.848h2.372c1.388-1.277 2.287-3.162 2.287-5.95z" fill="#ea4335"/>
</svg> 